Motion_pl02
version=1
nRows=9
nColumns=43
inDegrees=yes
endheader
time	pelvis_tilt	pelvis_list	pelvis_rotation	pelvis_tx	pelvis_ty	pelvis_tz	hip_flexion_r	hip_adduction_r	hip_rotation_r	knee_angle_r	ankle_angle_r	subtalar_angle_r	mtp_angle_r	hip_flexion_l	hip_adduction_l	hip_rotation_l	knee_angle_l	ankle_angle_l	subtalar_angle_l	mtp_angle_l	lumbar_extension	lumbar_bending	lumbar_rotation	neck_flexion	neck_lateral_bending	neck_rotation	arm_flex_r	arm_add_r	arm_rot_r	elbow_flex_r	pro_sup_r	wrist_flex_r	wrist_dev_r	hand_finger_flex_r	arm_flex_l	arm_add_l	arm_rot_l	elbow_flex_l	pro_sup_l	wrist_flex_l	wrist_dev_l	hand_finger_flex_l
      1.64000000	     -2.70558275	    -17.08425269	     92.63278138	      0.00743230	      0.70981124	      0.40110579	     73.41373408	     -8.40185228	     -4.41096468	    -90.16824512	      5.76348077	      9.94260225	     36.35491825	     72.92089546	     -3.66932090	     -7.21497785	    -88.10533678	      4.43609738	     -6.43599459	     33.58402060	    -57.88852951	      0.94457559	     -0.78863933	     19.56895362	      1.67226322	     -4.47501205	     80.47800522	    -10.00558484	     17.46376382	     43.19000126	    113.35129853	    -28.32187895	     -7.39253988	     22.23794515	     77.94875206	    -14.88556357	     24.20127930	     61.06586919	    132.05593132	     -6.03390746	     15.25976604	     66.33715077
      1.64250000	     -2.78070517	    -17.02433124	     92.55869954	      0.00713378	      0.71123828	      0.40067958	     73.17917999	     -8.41833618	     -4.34332771	    -89.91985695	      5.65270553	      9.96302002	     36.37554767	     72.64792456	     -3.62422584	     -7.30065346	    -87.84387171	      4.29362727	     -6.53633473	     33.66315917	    -57.98293126	      0.94598596	     -0.84681043	     19.40779296	      1.61239457	     -4.28077283	     79.97120303	     -9.78646128	     16.95136406	     42.51075504	    113.70920400	    -28.50982708	     -7.11782376	     22.26882687	     77.24877906	    -14.68862891	     23.39455014	     60.56529410	    132.09394149	     -5.90990572	     15.19130122	     66.09253897
      1.64500000	     -2.78417453	    -17.06864815	     92.53796871	      0.00702763	      0.71225651	      0.40028068	     73.06945297	     -8.39670930	     -4.33606182	    -89.72329627	      5.62578618	      9.96721356	     36.37186177	     72.54136574	     -3.60249312	     -7.28843582	    -87.66359540	      4.25813764	     -6.53427497	     33.66475853	    -57.99174349	      0.95384183	     -0.85664106	     19.54751074	      1.59525371	     -4.27472214	     79.37852759	     -9.93711959	     16.97313253	     42.19275727	    113.73759094	    -28.48287817	     -7.04572778	     22.29004299	     76.73810122	    -14.85001010	     23.46110298	     60.34537753	    132.10651032	     -5.84218060	     15.21115402	     66.09290093
      1.64750000	     -2.82221024	    -17.03288245	     92.47573828	      0.00681487	      0.71354850	      0.39989702	     72.86426461	     -8.38575766	     -4.29489350	    -89.48206841	      5.56255022	      9.99848444	     36.40713473	     72.31693372	     -3.58766632	     -7.34705362	    -87.42111036	      4.12739058	     -6.59261827	     33.76537801	    -58.06654437	      0.97104474	     -0.91083381	     19.45836180	      1.54775465	     -4.13959846	     78.87629831	     -9.73443268	     16.51276170	     41.55533171	    114.23205374	    -28.60782000	     -6.75046097	     22.38708716	     76.05089768	    -14.77949680	     22.75879143	     59.97779619	    132.13377554	     -5.49705944	     14.98934755	     65.94553071
      1.65000000	     -2.82923274	    -17.07504304	     92.45269060	      0.00672486	      0.71451855	      0.39951842	     72.75790047	     -8.36875886	     -4.29302847	    -89.29060407	      5.53465502	     10.00171324	     36.40305889	     72.21879455	     -3.56254286	     -7.32925266	    -87.25728610	      4.09391568	     -6.58689578	     33.76700784	    -58.07480254	      0.97448907	     -0.91500171	     19.60142374	      1.52993028	     -4.13380321	     78.28504483	     -9.89230152	     16.53346393	     41.23814549	    114.25996443	    -28.57681272	     -6.67938236	     22.40996735	     75.54124069	    -14.94164303	     22.83305399	     59.76397089	    132.14491685	     -5.42211690	     15.00333461	     65.95332532
      1.65250000	     -2.83307565	    -17.11533402	     92.42620018	      0.00661295	      0.71550107	      0.39918672	     72.65138105	     -8.35292243	     -4.29247399	    -89.08826229	      5.50366863	     10.00515340	     36.39852437	     72.11737739	     -3.54126037	     -7.32081556	    -87.07315978	      4.05210633	     -6.57748368	     33.76842001	    -58.08509508	      0.98444899	     -0.91604708	     19.71882055	      1.52452516	     -4.12624272	     77.70992197	    -10.02529716	     16.53321690	     40.90091370	    114.28840081	    -28.55503259	     -6.59262062	     22.43067698	     75.02588051	    -15.09093723	     22.86534222	     59.53825199	    132.14392099	     -5.34872815	     15.01096229	     65.96275311
      1.65500000	     -2.81516160	    -17.08744924	     92.38764381	      0.00633582	      0.71674755	      0.39877366	     72.43508658	     -8.33398680	     -4.31483829	    -88.84075822	      5.44756176	     10.01911153	     36.50357151	     71.90943123	     -3.55332814	     -7.35482870	    -86.83314676	      3.98352051	     -6.68232952	     34.09579360	    -58.16945691	      1.13133289	     -0.98687950	     19.69459094	      1.10332056	     -3.77447878	     77.18638358	     -9.56987823	     15.52786750	     40.28881001	    116.12799494	    -28.59076187	     -6.28220254	     22.88542984	     74.09920448	    -15.03013255	     21.37584191	     59.37061383	    132.47972584	     -3.93784235	     13.76170407	     65.89558492
      1.65750000	     -2.82078101	    -17.12714185	     92.36202622	      0.00624954	      0.71765279	      0.39841635	     72.33734563	     -8.31714179	     -4.31418198	    -88.65887719	      5.41438851	     10.02296837	     36.49792762	     71.81829601	     -3.52253394	     -7.32047064	    -86.68687561	      3.93318269	     -6.66771672	     34.09461227	    -58.17451043	      1.12701587	     -0.98826276	     19.82957192	      1.15083116	     -3.79373812	     76.61515688	     -9.71383243	     15.53843749	     39.93654004	    116.13551572	    -28.55080063	     -6.19489259	     22.90689557	     73.60407295	    -15.18754788	     21.44546292	     59.12732038	    132.50274463	     -3.88492284	     13.79320721	     65.89258592
      1.66000000	     -2.82035466	    -17.16694122	     92.34261861	      0.00617227	      0.71858247	      0.39810368	     72.23608230	     -8.29723499	     -4.31588244	    -88.46764109	      5.37931136	     10.02611455	     36.49167671	     71.72644529	     -3.50142341	     -7.29987233	    -86.51087741	      3.87758767	     -6.65237484	     34.09306956	    -58.18128155	      1.12806400	     -0.99440349	     19.94069849	      1.20024211	     -3.80822902	     76.04966398	     -9.84024266	     15.53372886	     39.57324630	    116.14420248	    -28.51902059	     -6.09601326	     22.92642078	     73.10439942	    -15.33301895	     21.47141975	     58.87864112	    132.51829293	     -3.84292706	     13.82100508	     65.88777242
